<mxfile host="65bd71144e">
    <diagram name="Page-1" id="9f46799a-70d6-7492-0946-bef42562c5a5">
        <mxGraphModel dx="1022" dy="647" grid="1" gridSize="10" guides="1" tooltips="1" connect="1" arrows="1" fold="1" page="1" pageScale="1" pageWidth="1100" pageHeight="850" background="none" math="0" shadow="0">
            <root>
                <mxCell id="0"/>
                <mxCell id="1" parent="0"/>
                <mxCell id="78961159f06e98e8-17" value="&lt;font color=&quot;#3333ff&quot;&gt;login&lt;/font&gt;" style="swimlane;html=1;fontStyle=1;align=center;verticalAlign=top;childLayout=stackLayout;horizontal=1;startSize=26;horizontalStack=0;resizeParent=1;resizeLast=0;collapsible=1;marginBottom=0;swimlaneFillColor=#ffffff;rounded=0;shadow=0;comic=0;labelBackgroundColor=none;strokeWidth=1;fillColor=none;fontFamily=Verdana;fontSize=12" parent="1" vertex="1">
                    <mxGeometry x="240" y="13" width="160" height="177" as="geometry"/>
                </mxCell>
                <mxCell id="78961159f06e98e8-23" value="Correo Electronico&lt;span style=&quot;white-space: pre;&quot;&gt;&#9;&lt;/span&gt;" style="text;html=1;strokeColor=none;fillColor=none;align=left;verticalAlign=top;spacingLeft=4;spacingRight=4;whiteSpace=wrap;overflow=hidden;rotatable=0;points=[[0,0.5],[1,0.5]];portConstraint=eastwest;" parent="78961159f06e98e8-17" vertex="1">
                    <mxGeometry y="26" width="160" height="26" as="geometry"/>
                </mxCell>
                <mxCell id="78961159f06e98e8-25" value="Contraseña" style="text;html=1;strokeColor=none;fillColor=none;align=left;verticalAlign=top;spacingLeft=4;spacingRight=4;whiteSpace=wrap;overflow=hidden;rotatable=0;points=[[0,0.5],[1,0.5]];portConstraint=eastwest;" parent="78961159f06e98e8-17" vertex="1">
                    <mxGeometry y="52" width="160" height="26" as="geometry"/>
                </mxCell>
                <mxCell id="78961159f06e98e8-38" value="" style="line;html=1;strokeWidth=1;fillColor=none;align=left;verticalAlign=middle;spacingTop=-1;spacingLeft=3;spacingRight=3;rotatable=0;labelPosition=right;points=[];portConstraint=eastwest;" parent="78961159f06e98e8-17" vertex="1">
                    <mxGeometry y="78" width="160" height="8" as="geometry"/>
                </mxCell>
                <mxCell id="S-RE5qoZ1X7-BYHgl4lZ-12" value="Registrarse" style="text;html=1;strokeColor=none;fillColor=none;align=left;verticalAlign=top;spacingLeft=4;spacingRight=4;whiteSpace=wrap;overflow=hidden;rotatable=0;points=[[0,0.5],[1,0.5]];portConstraint=eastwest;fontColor=#FF3333;" parent="78961159f06e98e8-17" vertex="1">
                    <mxGeometry y="86" width="160" height="26" as="geometry"/>
                </mxCell>
                <mxCell id="S-RE5qoZ1X7-BYHgl4lZ-11" value="Recuperar User/Pass." style="text;html=1;strokeColor=none;fillColor=none;align=left;verticalAlign=top;spacingLeft=4;spacingRight=4;whiteSpace=wrap;overflow=hidden;rotatable=0;points=[[0,0.5],[1,0.5]];portConstraint=eastwest;fontColor=#FF0000;" parent="78961159f06e98e8-17" vertex="1">
                    <mxGeometry y="112" width="160" height="26" as="geometry"/>
                </mxCell>
                <mxCell id="78961159f06e98e8-30" value="&lt;font color=&quot;#3333ff&quot;&gt;registro&lt;/font&gt;" style="swimlane;html=1;fontStyle=1;align=center;verticalAlign=top;childLayout=stackLayout;horizontal=1;startSize=26;horizontalStack=0;resizeParent=1;resizeLast=0;collapsible=1;marginBottom=0;swimlaneFillColor=#ffffff;rounded=0;shadow=0;comic=0;labelBackgroundColor=none;strokeWidth=1;fillColor=none;fontFamily=Verdana;fontSize=12" parent="1" vertex="1">
                    <mxGeometry x="480" y="13" width="160" height="190" as="geometry"/>
                </mxCell>
                <mxCell id="78961159f06e98e8-31" value="Correo Electronico&lt;span style=&quot;white-space: pre;&quot;&gt;&#9;&lt;/span&gt;" style="text;html=1;strokeColor=none;fillColor=none;align=left;verticalAlign=top;spacingLeft=4;spacingRight=4;whiteSpace=wrap;overflow=hidden;rotatable=0;points=[[0,0.5],[1,0.5]];portConstraint=eastwest;" parent="78961159f06e98e8-30" vertex="1">
                    <mxGeometry y="26" width="160" height="26" as="geometry"/>
                </mxCell>
                <mxCell id="78961159f06e98e8-33" value="Nombre de Usuario" style="text;html=1;strokeColor=none;fillColor=none;align=left;verticalAlign=top;spacingLeft=4;spacingRight=4;whiteSpace=wrap;overflow=hidden;rotatable=0;points=[[0,0.5],[1,0.5]];portConstraint=eastwest;" parent="78961159f06e98e8-30" vertex="1">
                    <mxGeometry y="52" width="160" height="26" as="geometry"/>
                </mxCell>
                <mxCell id="78961159f06e98e8-34" value="Contraseña" style="text;html=1;strokeColor=none;fillColor=none;align=left;verticalAlign=top;spacingLeft=4;spacingRight=4;whiteSpace=wrap;overflow=hidden;rotatable=0;points=[[0,0.5],[1,0.5]];portConstraint=eastwest;" parent="78961159f06e98e8-30" vertex="1">
                    <mxGeometry y="78" width="160" height="26" as="geometry"/>
                </mxCell>
                <mxCell id="78961159f06e98e8-36" value="Nombre" style="text;html=1;strokeColor=none;fillColor=none;align=left;verticalAlign=top;spacingLeft=4;spacingRight=4;whiteSpace=wrap;overflow=hidden;rotatable=0;points=[[0,0.5],[1,0.5]];portConstraint=eastwest;" parent="78961159f06e98e8-30" vertex="1">
                    <mxGeometry y="104" width="160" height="26" as="geometry"/>
                </mxCell>
                <mxCell id="78961159f06e98e8-37" value="Apellido&#9;" style="text;html=1;strokeColor=none;fillColor=none;align=left;verticalAlign=top;spacingLeft=4;spacingRight=4;whiteSpace=wrap;overflow=hidden;rotatable=0;points=[[0,0.5],[1,0.5]];portConstraint=eastwest;" parent="78961159f06e98e8-30" vertex="1">
                    <mxGeometry y="130" width="160" height="26" as="geometry"/>
                </mxCell>
                <mxCell id="S-RE5qoZ1X7-BYHgl4lZ-41" value="" style="line;html=1;strokeWidth=1;fillColor=none;align=left;verticalAlign=middle;spacingTop=-1;spacingLeft=3;spacingRight=3;rotatable=0;labelPosition=right;points=[];portConstraint=eastwest;" parent="78961159f06e98e8-30" vertex="1">
                    <mxGeometry y="156" width="160" height="8" as="geometry"/>
                </mxCell>
                <mxCell id="S-RE5qoZ1X7-BYHgl4lZ-42" value="&lt;font color=&quot;#ff0000&quot;&gt;BTN Registrar (#1)&lt;/font&gt;" style="text;html=1;strokeColor=none;fillColor=none;align=left;verticalAlign=top;spacingLeft=4;spacingRight=4;whiteSpace=wrap;overflow=hidden;rotatable=0;points=[[0,0.5],[1,0.5]];portConstraint=eastwest;" parent="78961159f06e98e8-30" vertex="1">
                    <mxGeometry y="164" width="160" height="26" as="geometry"/>
                </mxCell>
                <mxCell id="78961159f06e98e8-43" value="&lt;font color=&quot;#3333ff&quot;&gt;recuperar_user_pass&lt;/font&gt;" style="swimlane;html=1;fontStyle=1;align=center;verticalAlign=top;childLayout=stackLayout;horizontal=1;startSize=26;horizontalStack=0;resizeParent=1;resizeLast=0;collapsible=1;marginBottom=0;swimlaneFillColor=#ffffff;rounded=0;shadow=0;comic=0;labelBackgroundColor=none;strokeWidth=1;fillColor=none;fontFamily=Verdana;fontSize=12" parent="1" vertex="1">
                    <mxGeometry x="740" y="13" width="160" height="170" as="geometry"/>
                </mxCell>
                <mxCell id="78961159f06e98e8-44" value="Ingrese Mail" style="text;html=1;strokeColor=none;fillColor=none;align=left;verticalAlign=top;spacingLeft=4;spacingRight=4;whiteSpace=wrap;overflow=hidden;rotatable=0;points=[[0,0.5],[1,0.5]];portConstraint=eastwest;" parent="78961159f06e98e8-43" vertex="1">
                    <mxGeometry y="26" width="160" height="26" as="geometry"/>
                </mxCell>
                <mxCell id="78961159f06e98e8-45" value="Ingrese Usuario" style="text;html=1;strokeColor=none;fillColor=none;align=left;verticalAlign=top;spacingLeft=4;spacingRight=4;whiteSpace=wrap;overflow=hidden;rotatable=0;points=[[0,0.5],[1,0.5]];portConstraint=eastwest;" parent="78961159f06e98e8-43" vertex="1">
                    <mxGeometry y="52" width="160" height="26" as="geometry"/>
                </mxCell>
                <mxCell id="78961159f06e98e8-49" value="Ingrese Pass" style="text;html=1;strokeColor=none;fillColor=none;align=left;verticalAlign=top;spacingLeft=4;spacingRight=4;whiteSpace=wrap;overflow=hidden;rotatable=0;points=[[0,0.5],[1,0.5]];portConstraint=eastwest;" parent="78961159f06e98e8-43" vertex="1">
                    <mxGeometry y="78" width="160" height="26" as="geometry"/>
                </mxCell>
                <mxCell id="78961159f06e98e8-51" value="" style="line;html=1;strokeWidth=1;fillColor=none;align=left;verticalAlign=middle;spacingTop=-1;spacingLeft=3;spacingRight=3;rotatable=0;labelPosition=right;points=[];portConstraint=eastwest;" parent="78961159f06e98e8-43" vertex="1">
                    <mxGeometry y="104" width="160" height="8" as="geometry"/>
                </mxCell>
                <mxCell id="78961159f06e98e8-52" value="&lt;font color=&quot;#ff0000&quot;&gt;Recuperar User.&lt;/font&gt;" style="text;html=1;strokeColor=none;fillColor=none;align=left;verticalAlign=top;spacingLeft=4;spacingRight=4;whiteSpace=wrap;overflow=hidden;rotatable=0;points=[[0,0.5],[1,0.5]];portConstraint=eastwest;" parent="78961159f06e98e8-43" vertex="1">
                    <mxGeometry y="112" width="160" height="26" as="geometry"/>
                </mxCell>
                <mxCell id="78961159f06e98e8-53" value="&lt;font color=&quot;#ff0000&quot;&gt;Recuperar Pass&lt;/font&gt;" style="text;html=1;strokeColor=none;fillColor=none;align=left;verticalAlign=top;spacingLeft=4;spacingRight=4;whiteSpace=wrap;overflow=hidden;rotatable=0;points=[[0,0.5],[1,0.5]];portConstraint=eastwest;" parent="78961159f06e98e8-43" vertex="1">
                    <mxGeometry y="138" width="160" height="26" as="geometry"/>
                </mxCell>
                <mxCell id="78961159f06e98e8-108" value="&lt;font color=&quot;#3333ff&quot;&gt;Perfil_Usuario&lt;/font&gt;" style="swimlane;html=1;fontStyle=1;align=center;verticalAlign=top;childLayout=stackLayout;horizontal=1;startSize=26;horizontalStack=0;resizeParent=1;resizeLast=0;collapsible=1;marginBottom=0;swimlaneFillColor=#ffffff;rounded=0;shadow=0;comic=0;labelBackgroundColor=none;strokeWidth=1;fillColor=none;fontFamily=Verdana;fontSize=12" parent="1" vertex="1">
                    <mxGeometry x="800" y="229.99999999999977" width="160" height="147" as="geometry"/>
                </mxCell>
                <mxCell id="78961159f06e98e8-109" value="+ field: type" style="text;html=1;strokeColor=none;fillColor=none;align=left;verticalAlign=top;spacingLeft=4;spacingRight=4;whiteSpace=wrap;overflow=hidden;rotatable=0;points=[[0,0.5],[1,0.5]];portConstraint=eastwest;" parent="78961159f06e98e8-108" vertex="1">
                    <mxGeometry y="26" width="160" height="26" as="geometry"/>
                </mxCell>
                <mxCell id="78961159f06e98e8-110" value="+ field: type" style="text;html=1;strokeColor=none;fillColor=none;align=left;verticalAlign=top;spacingLeft=4;spacingRight=4;whiteSpace=wrap;overflow=hidden;rotatable=0;points=[[0,0.5],[1,0.5]];portConstraint=eastwest;" parent="78961159f06e98e8-108" vertex="1">
                    <mxGeometry y="52" width="160" height="26" as="geometry"/>
                </mxCell>
                <mxCell id="78961159f06e98e8-116" value="" style="line;html=1;strokeWidth=1;fillColor=none;align=left;verticalAlign=middle;spacingTop=-1;spacingLeft=3;spacingRight=3;rotatable=0;labelPosition=right;points=[];portConstraint=eastwest;" parent="78961159f06e98e8-108" vertex="1">
                    <mxGeometry y="78" width="160" height="8" as="geometry"/>
                </mxCell>
                <mxCell id="78961159f06e98e8-117" value="+ method(type): type" style="text;html=1;strokeColor=none;fillColor=none;align=left;verticalAlign=top;spacingLeft=4;spacingRight=4;whiteSpace=wrap;overflow=hidden;rotatable=0;points=[[0,0.5],[1,0.5]];portConstraint=eastwest;" parent="78961159f06e98e8-108" vertex="1">
                    <mxGeometry y="86" width="160" height="26" as="geometry"/>
                </mxCell>
                <mxCell id="78961159f06e98e8-120" value="+ method(type): type" style="text;html=1;strokeColor=none;fillColor=none;align=left;verticalAlign=top;spacingLeft=4;spacingRight=4;whiteSpace=wrap;overflow=hidden;rotatable=0;points=[[0,0.5],[1,0.5]];portConstraint=eastwest;" parent="78961159f06e98e8-108" vertex="1">
                    <mxGeometry y="112" width="160" height="26" as="geometry"/>
                </mxCell>
                <mxCell id="S-RE5qoZ1X7-BYHgl4lZ-1" value="&lt;font color=&quot;#3333ff&quot;&gt;Home&lt;/font&gt;" style="swimlane;html=1;fontStyle=1;align=center;verticalAlign=top;childLayout=stackLayout;horizontal=1;startSize=26;horizontalStack=0;resizeParent=1;resizeLast=0;collapsible=1;marginBottom=0;swimlaneFillColor=#ffffff;rounded=0;shadow=0;comic=0;labelBackgroundColor=none;strokeWidth=1;fillColor=none;fontFamily=Verdana;fontSize=12" parent="1" vertex="1">
                    <mxGeometry x="20" y="20" width="160" height="87" as="geometry"/>
                </mxCell>
                <mxCell id="S-RE5qoZ1X7-BYHgl4lZ-21" value="&lt;font color=&quot;#3333ff&quot;&gt;HomeLogin&lt;/font&gt;" style="swimlane;childLayout=stackLayout;resizeParent=1;resizeParentMax=0;startSize=20;html=1;" parent="1" vertex="1">
                    <mxGeometry x="25" y="240" width="360" height="180" as="geometry"/>
                </mxCell>
                <mxCell id="S-RE5qoZ1X7-BYHgl4lZ-22" value="Servidores" style="swimlane;startSize=20;html=1;" parent="S-RE5qoZ1X7-BYHgl4lZ-21" vertex="1">
                    <mxGeometry y="20" width="120" height="160" as="geometry"/>
                </mxCell>
                <mxCell id="S-RE5qoZ1X7-BYHgl4lZ-25" value="&lt;font color=&quot;#ff0000&quot;&gt;Crear Srevidor&lt;/font&gt;" style="text;html=1;strokeColor=none;fillColor=none;align=left;verticalAlign=top;spacingLeft=4;spacingRight=4;whiteSpace=wrap;overflow=hidden;rotatable=0;points=[[0,0.5],[1,0.5]];portConstraint=eastwest;" parent="S-RE5qoZ1X7-BYHgl4lZ-22" vertex="1">
                    <mxGeometry y="88" width="120" height="26" as="geometry"/>
                </mxCell>
                <mxCell id="S-RE5qoZ1X7-BYHgl4lZ-26" value="&lt;font color=&quot;#ff3333&quot;&gt;Explorar Servidores&lt;/font&gt;" style="text;html=1;strokeColor=none;fillColor=none;align=left;verticalAlign=top;spacingLeft=4;spacingRight=4;whiteSpace=wrap;overflow=hidden;rotatable=0;points=[[0,0.5],[1,0.5]];portConstraint=eastwest;" parent="S-RE5qoZ1X7-BYHgl4lZ-22" vertex="1">
                    <mxGeometry y="106" width="120" height="26" as="geometry"/>
                </mxCell>
                <mxCell id="S-RE5qoZ1X7-BYHgl4lZ-33" value="Servidor 1" style="text;html=1;strokeColor=none;fillColor=none;align=left;verticalAlign=top;spacingLeft=4;spacingRight=4;whiteSpace=wrap;overflow=hidden;rotatable=0;points=[[0,0.5],[1,0.5]];portConstraint=eastwest;" parent="S-RE5qoZ1X7-BYHgl4lZ-22" vertex="1">
                    <mxGeometry y="20" width="120" height="26" as="geometry"/>
                </mxCell>
                <mxCell id="S-RE5qoZ1X7-BYHgl4lZ-32" value="Servidor 2" style="text;html=1;strokeColor=none;fillColor=none;align=left;verticalAlign=top;spacingLeft=4;spacingRight=4;whiteSpace=wrap;overflow=hidden;rotatable=0;points=[[0,0.5],[1,0.5]];portConstraint=eastwest;" parent="S-RE5qoZ1X7-BYHgl4lZ-22" vertex="1">
                    <mxGeometry y="40" width="120" height="26" as="geometry"/>
                </mxCell>
                <mxCell id="S-RE5qoZ1X7-BYHgl4lZ-31" value="&lt;font color=&quot;#ff0000&quot;&gt;Usuario&lt;/font&gt;" style="text;html=1;strokeColor=none;fillColor=none;align=left;verticalAlign=top;spacingLeft=4;spacingRight=4;whiteSpace=wrap;overflow=hidden;rotatable=0;points=[[0,0.5],[1,0.5]];portConstraint=eastwest;" parent="S-RE5qoZ1X7-BYHgl4lZ-22" vertex="1">
                    <mxGeometry y="128" width="120" height="26" as="geometry"/>
                </mxCell>
                <mxCell id="S-RE5qoZ1X7-BYHgl4lZ-34" value="" style="line;html=1;strokeWidth=1;fillColor=none;align=left;verticalAlign=middle;spacingTop=-1;spacingLeft=3;spacingRight=3;rotatable=0;labelPosition=right;points=[];portConstraint=eastwest;" parent="S-RE5qoZ1X7-BYHgl4lZ-22" vertex="1">
                    <mxGeometry y="126" width="120" height="8" as="geometry"/>
                </mxCell>
                <mxCell id="S-RE5qoZ1X7-BYHgl4lZ-35" value="" style="line;html=1;strokeWidth=1;fillColor=none;align=left;verticalAlign=middle;spacingTop=-1;spacingLeft=3;spacingRight=3;rotatable=0;labelPosition=right;points=[];portConstraint=eastwest;" parent="S-RE5qoZ1X7-BYHgl4lZ-22" vertex="1">
                    <mxGeometry y="88" width="120" height="8" as="geometry"/>
                </mxCell>
                <mxCell id="S-RE5qoZ1X7-BYHgl4lZ-36" value="Etc." style="text;html=1;strokeColor=none;fillColor=none;align=left;verticalAlign=top;spacingLeft=4;spacingRight=4;whiteSpace=wrap;overflow=hidden;rotatable=0;points=[[0,0.5],[1,0.5]];portConstraint=eastwest;" parent="S-RE5qoZ1X7-BYHgl4lZ-22" vertex="1">
                    <mxGeometry y="62" width="120" height="26" as="geometry"/>
                </mxCell>
                <mxCell id="S-RE5qoZ1X7-BYHgl4lZ-23" value="Canales" style="swimlane;startSize=20;html=1;" parent="S-RE5qoZ1X7-BYHgl4lZ-21" vertex="1">
                    <mxGeometry x="120" y="20" width="120" height="160" as="geometry"/>
                </mxCell>
                <mxCell id="S-RE5qoZ1X7-BYHgl4lZ-38" value="Canal 2 de Server 1" style="text;html=1;strokeColor=none;fillColor=none;align=left;verticalAlign=top;spacingLeft=4;spacingRight=4;whiteSpace=wrap;overflow=hidden;rotatable=0;points=[[0,0.5],[1,0.5]];portConstraint=eastwest;" parent="S-RE5qoZ1X7-BYHgl4lZ-23" vertex="1">
                    <mxGeometry y="46" width="120" height="26" as="geometry"/>
                </mxCell>
                <mxCell id="S-RE5qoZ1X7-BYHgl4lZ-37" value="Canal 1 de Server 1" style="text;html=1;strokeColor=none;fillColor=none;align=left;verticalAlign=top;spacingLeft=4;spacingRight=4;whiteSpace=wrap;overflow=hidden;rotatable=0;points=[[0,0.5],[1,0.5]];portConstraint=eastwest;" parent="S-RE5qoZ1X7-BYHgl4lZ-23" vertex="1">
                    <mxGeometry y="20" width="120" height="26" as="geometry"/>
                </mxCell>
                <mxCell id="S-RE5qoZ1X7-BYHgl4lZ-39" value="Etc." style="text;html=1;strokeColor=none;fillColor=none;align=left;verticalAlign=top;spacingLeft=4;spacingRight=4;whiteSpace=wrap;overflow=hidden;rotatable=0;points=[[0,0.5],[1,0.5]];portConstraint=eastwest;" parent="S-RE5qoZ1X7-BYHgl4lZ-23" vertex="1">
                    <mxGeometry y="72" width="120" height="26" as="geometry"/>
                </mxCell>
                <mxCell id="S-RE5qoZ1X7-BYHgl4lZ-24" value="Chat" style="swimlane;startSize=20;html=1;" parent="S-RE5qoZ1X7-BYHgl4lZ-21" vertex="1">
                    <mxGeometry x="240" y="20" width="120" height="160" as="geometry"/>
                </mxCell>
                <mxCell id="S-RE5qoZ1X7-BYHgl4lZ-40" value="Chat del canal seleccionado." style="text;html=1;strokeColor=none;fillColor=none;align=left;verticalAlign=top;spacingLeft=4;spacingRight=4;whiteSpace=wrap;overflow=hidden;rotatable=0;points=[[0,0.5],[1,0.5]];portConstraint=eastwest;" parent="S-RE5qoZ1X7-BYHgl4lZ-24" vertex="1">
                    <mxGeometry y="60" width="120" height="38" as="geometry"/>
                </mxCell>
                <mxCell id="S-RE5qoZ1X7-BYHgl4lZ-43" value="&lt;font color=&quot;#ff0000&quot;&gt;&lt;b&gt;&lt;u&gt;TEXTO EN ROJO:&lt;/u&gt; Son enlaces a otros endpoint.&lt;/b&gt;&lt;/font&gt;" style="text;html=1;strokeColor=none;fillColor=none;align=center;verticalAlign=middle;whiteSpace=wrap;rounded=0;" parent="1" vertex="1">
                    <mxGeometry x="30" y="950" width="280" height="30" as="geometry"/>
                </mxCell>
                <mxCell id="S-RE5qoZ1X7-BYHgl4lZ-44" value="&lt;b style=&quot;&quot;&gt;&lt;font color=&quot;#3333ff&quot;&gt;&lt;u style=&quot;&quot;&gt;TEXTO EN AZUL:&lt;/u&gt; Son los nombres que tendran los endpoints.&lt;/font&gt;&lt;/b&gt;" style="text;html=1;strokeColor=none;fillColor=none;align=center;verticalAlign=middle;whiteSpace=wrap;rounded=0;" parent="1" vertex="1">
                    <mxGeometry x="30" y="980" width="350" height="30" as="geometry"/>
                </mxCell>
                <mxCell id="S-RE5qoZ1X7-BYHgl4lZ-45" value="&lt;font color=&quot;#3333ff&quot;&gt;Explorar Servidor&lt;/font&gt;" style="swimlane;childLayout=stackLayout;resizeParent=1;resizeParentMax=0;startSize=20;html=1;" parent="1" vertex="1">
                    <mxGeometry x="490" y="230" width="240" height="180" as="geometry"/>
                </mxCell>
                <mxCell id="S-RE5qoZ1X7-BYHgl4lZ-46" value="" style="swimlane;startSize=20;html=1;" parent="S-RE5qoZ1X7-BYHgl4lZ-45" vertex="1">
                    <mxGeometry y="20" width="120" height="160" as="geometry"/>
                </mxCell>
                <mxCell id="S-RE5qoZ1X7-BYHgl4lZ-47" value="&lt;font color=&quot;#ff0000&quot;&gt;Crear Srevidor&lt;/font&gt;" style="text;html=1;strokeColor=none;fillColor=none;align=left;verticalAlign=top;spacingLeft=4;spacingRight=4;whiteSpace=wrap;overflow=hidden;rotatable=0;points=[[0,0.5],[1,0.5]];portConstraint=eastwest;" parent="S-RE5qoZ1X7-BYHgl4lZ-46" vertex="1">
                    <mxGeometry y="30" width="120" height="26" as="geometry"/>
                </mxCell>
                <mxCell id="S-RE5qoZ1X7-BYHgl4lZ-48" value="&lt;font&gt;Explorar Servidores&lt;/font&gt;" style="text;html=1;strokeColor=none;fillColor=none;align=left;verticalAlign=top;spacingLeft=4;spacingRight=4;whiteSpace=wrap;overflow=hidden;rotatable=0;points=[[0,0.5],[1,0.5]];portConstraint=eastwest;fontColor=#3333FF;" parent="S-RE5qoZ1X7-BYHgl4lZ-46" vertex="1">
                    <mxGeometry y="56" width="120" height="26" as="geometry"/>
                </mxCell>
                <mxCell id="S-RE5qoZ1X7-BYHgl4lZ-51" value="&lt;font color=&quot;#ff0000&quot;&gt;Usuario&lt;/font&gt;" style="text;html=1;strokeColor=none;fillColor=none;align=left;verticalAlign=top;spacingLeft=4;spacingRight=4;whiteSpace=wrap;overflow=hidden;rotatable=0;points=[[0,0.5],[1,0.5]];portConstraint=eastwest;" parent="S-RE5qoZ1X7-BYHgl4lZ-46" vertex="1">
                    <mxGeometry y="128" width="120" height="26" as="geometry"/>
                </mxCell>
                <mxCell id="S-RE5qoZ1X7-BYHgl4lZ-52" value="" style="line;html=1;strokeWidth=1;fillColor=none;align=left;verticalAlign=middle;spacingTop=-1;spacingLeft=3;spacingRight=3;rotatable=0;labelPosition=right;points=[];portConstraint=eastwest;" parent="S-RE5qoZ1X7-BYHgl4lZ-46" vertex="1">
                    <mxGeometry y="126" width="120" height="8" as="geometry"/>
                </mxCell>
                <mxCell id="S-RE5qoZ1X7-BYHgl4lZ-55" value="" style="swimlane;startSize=20;html=1;" parent="S-RE5qoZ1X7-BYHgl4lZ-45" vertex="1">
                    <mxGeometry x="120" y="20" width="120" height="160" as="geometry"/>
                </mxCell>
                <mxCell id="S-RE5qoZ1X7-BYHgl4lZ-56" value="Server 1" style="text;html=1;strokeColor=none;fillColor=none;align=left;verticalAlign=top;spacingLeft=4;spacingRight=4;whiteSpace=wrap;overflow=hidden;rotatable=0;points=[[0,0.5],[1,0.5]];portConstraint=eastwest;" parent="S-RE5qoZ1X7-BYHgl4lZ-55" vertex="1">
                    <mxGeometry y="75" width="120" height="26" as="geometry"/>
                </mxCell>
                <mxCell id="S-RE5qoZ1X7-BYHgl4lZ-57" value="&lt;font color=&quot;#ff0000&quot;&gt;BTN Buscar?&lt;/font&gt;" style="text;html=1;strokeColor=none;fillColor=none;align=left;verticalAlign=top;spacingLeft=4;spacingRight=4;whiteSpace=wrap;overflow=hidden;rotatable=0;points=[[0,0.5],[1,0.5]];portConstraint=eastwest;" parent="S-RE5qoZ1X7-BYHgl4lZ-55" vertex="1">
                    <mxGeometry y="41" width="130" height="26" as="geometry"/>
                </mxCell>
                <mxCell id="S-RE5qoZ1X7-BYHgl4lZ-58" value="Servidor 2" style="text;html=1;strokeColor=none;fillColor=none;align=left;verticalAlign=top;spacingLeft=4;spacingRight=4;whiteSpace=wrap;overflow=hidden;rotatable=0;points=[[0,0.5],[1,0.5]];portConstraint=eastwest;" parent="S-RE5qoZ1X7-BYHgl4lZ-55" vertex="1">
                    <mxGeometry y="104" width="120" height="26" as="geometry"/>
                </mxCell>
                <mxCell id="S-RE5qoZ1X7-BYHgl4lZ-61" value="Etc." style="text;html=1;strokeColor=none;fillColor=none;align=left;verticalAlign=top;spacingLeft=4;spacingRight=4;whiteSpace=wrap;overflow=hidden;rotatable=0;points=[[0,0.5],[1,0.5]];portConstraint=eastwest;" parent="S-RE5qoZ1X7-BYHgl4lZ-55" vertex="1">
                    <mxGeometry y="130" width="120" height="30" as="geometry"/>
                </mxCell>
                <mxCell id="S-RE5qoZ1X7-BYHgl4lZ-62" value="" style="line;html=1;strokeWidth=1;fillColor=none;align=left;verticalAlign=middle;spacingTop=-1;spacingLeft=3;spacingRight=3;rotatable=0;labelPosition=right;points=[];portConstraint=eastwest;" parent="S-RE5qoZ1X7-BYHgl4lZ-55" vertex="1">
                    <mxGeometry y="67" width="120" height="8" as="geometry"/>
                </mxCell>
                <mxCell id="S-RE5qoZ1X7-BYHgl4lZ-81" value="&lt;font color=&quot;#ff0000&quot;&gt;Buscar Servidor (#2)&lt;/font&gt;" style="text;html=1;strokeColor=none;fillColor=none;align=left;verticalAlign=top;spacingLeft=4;spacingRight=4;whiteSpace=wrap;overflow=hidden;rotatable=0;points=[[0,0.5],[1,0.5]];portConstraint=eastwest;" parent="S-RE5qoZ1X7-BYHgl4lZ-55" vertex="1">
                    <mxGeometry y="15" width="130" height="26" as="geometry"/>
                </mxCell>
                <mxCell id="S-RE5qoZ1X7-BYHgl4lZ-63" value="&lt;font color=&quot;#3333ff&quot;&gt;HomeLogin Nuevo&lt;/font&gt;" style="swimlane;childLayout=stackLayout;resizeParent=1;resizeParentMax=0;startSize=20;html=1;" parent="1" vertex="1">
                    <mxGeometry x="75" y="1150" width="190" height="180" as="geometry">
                        <mxRectangle x="10" y="240" width="140" height="30" as="alternateBounds"/>
                    </mxGeometry>
                </mxCell>
                <mxCell id="S-RE5qoZ1X7-BYHgl4lZ-64" value="Servidores" style="swimlane;startSize=20;html=1;" parent="S-RE5qoZ1X7-BYHgl4lZ-63" vertex="1">
                    <mxGeometry y="20" width="90" height="160" as="geometry"/>
                </mxCell>
                <mxCell id="S-RE5qoZ1X7-BYHgl4lZ-65" value="&lt;font color=&quot;#ff0000&quot;&gt;Crear Srevidor&lt;/font&gt;" style="text;html=1;strokeColor=none;fillColor=none;align=left;verticalAlign=top;spacingLeft=4;spacingRight=4;whiteSpace=wrap;overflow=hidden;rotatable=0;points=[[0,0.5],[1,0.5]];portConstraint=eastwest;" parent="S-RE5qoZ1X7-BYHgl4lZ-64" vertex="1">
                    <mxGeometry y="30" width="90" height="26" as="geometry"/>
                </mxCell>
                <mxCell id="S-RE5qoZ1X7-BYHgl4lZ-66" value="&lt;font color=&quot;#ff3333&quot;&gt;Explorar Servidores&lt;/font&gt;" style="text;html=1;strokeColor=none;fillColor=none;align=left;verticalAlign=top;spacingLeft=4;spacingRight=4;whiteSpace=wrap;overflow=hidden;rotatable=0;points=[[0,0.5],[1,0.5]];portConstraint=eastwest;" parent="S-RE5qoZ1X7-BYHgl4lZ-64" vertex="1">
                    <mxGeometry y="60" width="90" height="40" as="geometry"/>
                </mxCell>
                <mxCell id="S-RE5qoZ1X7-BYHgl4lZ-69" value="&lt;font color=&quot;#ff0000&quot;&gt;Usuario&lt;/font&gt;" style="text;html=1;strokeColor=none;fillColor=none;align=left;verticalAlign=top;spacingLeft=4;spacingRight=4;whiteSpace=wrap;overflow=hidden;rotatable=0;points=[[0,0.5],[1,0.5]];portConstraint=eastwest;" parent="S-RE5qoZ1X7-BYHgl4lZ-64" vertex="1">
                    <mxGeometry y="128" width="120" height="26" as="geometry"/>
                </mxCell>
                <mxCell id="S-RE5qoZ1X7-BYHgl4lZ-70" value="" style="line;html=1;strokeWidth=1;fillColor=none;align=left;verticalAlign=middle;spacingTop=-1;spacingLeft=3;spacingRight=3;rotatable=0;labelPosition=right;points=[];portConstraint=eastwest;" parent="S-RE5qoZ1X7-BYHgl4lZ-64" vertex="1">
                    <mxGeometry y="126" width="90" height="8" as="geometry"/>
                </mxCell>
                <mxCell id="S-RE5qoZ1X7-BYHgl4lZ-73" value="Canales" style="swimlane;startSize=20;html=1;" parent="S-RE5qoZ1X7-BYHgl4lZ-63" vertex="1">
                    <mxGeometry x="90" y="20" width="100" height="160" as="geometry">
                        <mxRectangle x="90" y="20" width="40" height="150" as="alternateBounds"/>
                    </mxGeometry>
                </mxCell>
                <mxCell id="S-RE5qoZ1X7-BYHgl4lZ-75" value="Aun no te has unido a un servidor.&lt;br&gt;Intenta buscar uno o crear uno propio." style="text;html=1;strokeColor=none;fillColor=none;align=left;verticalAlign=top;spacingLeft=4;spacingRight=4;whiteSpace=wrap;overflow=hidden;rotatable=0;points=[[0,0.5],[1,0.5]];portConstraint=eastwest;fontStyle=1" parent="S-RE5qoZ1X7-BYHgl4lZ-73" vertex="1">
                    <mxGeometry y="45" width="100" height="73" as="geometry"/>
                </mxCell>
                <mxCell id="S-RE5qoZ1X7-BYHgl4lZ-80" value="&lt;span style=&quot;color: rgb(255, 0, 0); font-family: Helvetica; font-size: 12px; font-style: normal; font-variant-ligatures: normal; font-variant-caps: normal; font-weight: 400; letter-spacing: normal; orphans: 2; text-align: left; text-indent: 0px; text-transform: none; widows: 2; word-spacing: 0px; -webkit-text-stroke-width: 0px; background-color: rgb(251, 251, 251); text-decoration-thickness: initial; text-decoration-style: initial; text-decoration-color: initial; float: none; display: inline !important;&quot;&gt;Buscar Servidor (#2): Muestra vista previa o poner un boton para &lt;span style=&quot;white-space: pre;&quot;&gt;&#9;&lt;/span&gt;&lt;span style=&quot;white-space: pre;&quot;&gt;&#9;&lt;/span&gt;&lt;span style=&quot;white-space: pre;&quot;&gt;&#9;&lt;/span&gt;&lt;span style=&quot;white-space: pre;&quot;&gt;&#9;&lt;/span&gt;&lt;span style=&quot;white-space: pre;&quot;&gt;&#9;&lt;/span&gt;buscar segun el texto introducido.&lt;/span&gt;" style="text;whiteSpace=wrap;html=1;" parent="1" vertex="1">
                    <mxGeometry x="40" y="1050" width="390" height="40" as="geometry"/>
                </mxCell>
                <mxCell id="S-RE5qoZ1X7-BYHgl4lZ-82" value="&lt;span style=&quot;color: rgb(255, 0, 0); font-family: Helvetica; font-size: 12px; font-style: normal; font-variant-ligatures: normal; font-variant-caps: normal; font-weight: 400; letter-spacing: normal; orphans: 2; text-align: left; text-indent: 0px; text-transform: none; widows: 2; word-spacing: 0px; -webkit-text-stroke-width: 0px; background-color: rgb(251, 251, 251); text-decoration-thickness: initial; text-decoration-style: initial; text-decoration-color: initial; float: none; display: inline !important;&quot;&gt;BTN Registrar (#1): Luego de hacer clic a donde me redirige?&lt;/span&gt;" style="text;whiteSpace=wrap;html=1;" parent="1" vertex="1">
                    <mxGeometry x="40" y="1020" width="360" height="40" as="geometry"/>
                </mxCell>
                <mxCell id="xpKDisF0vIWm41wcdGWk-3" style="edgeStyle=orthogonalEdgeStyle;rounded=0;orthogonalLoop=1;jettySize=auto;html=1;exitX=0.25;exitY=0;exitDx=0;exitDy=0;entryX=0.317;entryY=-0.02;entryDx=0;entryDy=0;entryPerimeter=0;" parent="1" source="78961159f06e98e8-43" target="78961159f06e98e8-43" edge="1">
                    <mxGeometry relative="1" as="geometry"/>
                </mxCell>
            </root>
        </mxGraphModel>
    </diagram>
</mxfile>